<svg width="20" height="20" viewBox="0 0 20 20" fill="none" xmlns="http://www.w3.org/2000/svg">
<g clip-path="url(#clip0_22_8281)">
<path d="M15 20H5.00001C3.89535 19.9987 2.83631 19.5593 2.05519 18.7782C1.27408 17.997 0.834667 16.938 0.833344 15.8333V4.16667C0.834667 3.062 1.27408 2.00296 2.05519 1.22185C2.83631 0.440735 3.89535 0.00132321 5.00001 0L15 0C16.1047 0.00132321 17.1637 0.440735 17.9448 1.22185C18.7259 2.00296 19.1654 3.062 19.1667 4.16667V15.8333C19.1654 16.938 18.7259 17.997 17.9448 18.7782C17.1637 19.5593 16.1047 19.9987 15 20ZM5.00001 1.66667C4.33697 1.66667 3.70108 1.93006 3.23224 2.3989C2.7634 2.86774 2.50001 3.50363 2.50001 4.16667V15.8333C2.50001 16.4964 2.7634 17.1323 3.23224 17.6011C3.70108 18.0699 4.33697 18.3333 5.00001 18.3333H15C15.6631 18.3333 16.2989 18.0699 16.7678 17.6011C17.2366 17.1323 17.5 16.4964 17.5 15.8333V4.16667C17.5 3.50363 17.2366 2.86774 16.7678 2.3989C16.2989 1.93006 15.6631 1.66667 15 1.66667H5.00001ZM13.3333 8.33333H6.66668C6.00364 8.33333 5.36775 8.06994 4.89891 7.6011C4.43007 7.13226 4.16668 6.49637 4.16668 5.83333C4.16668 5.17029 4.43007 4.53441 4.89891 4.06557C5.36775 3.59673 6.00364 3.33333 6.66668 3.33333H13.3333C13.9964 3.33333 14.6323 3.59673 15.1011 4.06557C15.57 4.53441 15.8333 5.17029 15.8333 5.83333C15.8333 6.49637 15.57 7.13226 15.1011 7.6011C14.6323 8.06994 13.9964 8.33333 13.3333 8.33333ZM6.66668 5C6.44566 5 6.2337 5.0878 6.07742 5.24408C5.92114 5.40036 5.83334 5.61232 5.83334 5.83333C5.83334 6.05435 5.92114 6.26631 6.07742 6.42259C6.2337 6.57887 6.44566 6.66667 6.66668 6.66667H13.3333C13.5544 6.66667 13.7663 6.57887 13.9226 6.42259C14.0789 6.26631 14.1667 6.05435 14.1667 5.83333C14.1667 5.61232 14.0789 5.40036 13.9226 5.24408C13.7663 5.0878 13.5544 5 13.3333 5H6.66668ZM5.00001 10.8333C4.83519 10.8333 4.67408 10.8822 4.53704 10.9738C4.39999 11.0653 4.29318 11.1955 4.23011 11.3478C4.16704 11.5 4.15053 11.6676 4.18269 11.8292C4.21484 11.9909 4.29421 12.1394 4.41075 12.2559C4.5273 12.3725 4.67578 12.4518 4.83744 12.484C4.99909 12.5161 5.16664 12.4996 5.31891 12.4366C5.47118 12.3735 5.60133 12.2667 5.6929 12.1296C5.78447 11.9926 5.83334 11.8315 5.83334 11.6667C5.83334 11.4457 5.74555 11.2337 5.58927 11.0774C5.43299 10.9211 5.22102 10.8333 5.00001 10.8333ZM8.33334 10.8333C8.16853 10.8333 8.00741 10.8822 7.87037 10.9738C7.73333 11.0653 7.62652 11.1955 7.56344 11.3478C7.50037 11.5 7.48387 11.6676 7.51602 11.8292C7.54818 11.9909 7.62754 12.1394 7.74409 12.2559C7.86063 12.3725 8.00912 12.4518 8.17077 12.484C8.33242 12.5161 8.49998 12.4996 8.65225 12.4366C8.80452 12.3735 8.93467 12.2667 9.02624 12.1296C9.1178 11.9926 9.16668 11.8315 9.16668 11.6667C9.16668 11.4457 9.07888 11.2337 8.9226 11.0774C8.76632 10.9211 8.55436 10.8333 8.33334 10.8333ZM11.6667 10.8333C11.5019 10.8333 11.3407 10.8822 11.2037 10.9738C11.0667 11.0653 10.9599 11.1955 10.8968 11.3478C10.8337 11.5 10.8172 11.6676 10.8494 11.8292C10.8815 11.9909 10.9609 12.1394 11.0774 12.2559C11.194 12.3725 11.3425 12.4518 11.5041 12.484C11.6658 12.5161 11.8333 12.4996 11.9856 12.4366C12.1379 12.3735 12.268 12.2667 12.3596 12.1296C12.4511 11.9926 12.5 11.8315 12.5 11.6667C12.5 11.4457 12.4122 11.2337 12.2559 11.0774C12.0997 10.9211 11.8877 10.8333 11.6667 10.8333ZM5.00001 14.1667C4.83519 14.1667 4.67408 14.2155 4.53704 14.3071C4.39999 14.3987 4.29318 14.5288 4.23011 14.6811C4.16704 14.8334 4.15053 15.0009 4.18269 15.1626C4.21484 15.3242 4.29421 15.4727 4.41075 15.5893C4.5273 15.7058 4.67578 15.7852 4.83744 15.8173C4.99909 15.8495 5.16664 15.833 5.31891 15.7699C5.47118 15.7068 5.60133 15.6 5.6929 15.463C5.78447 15.3259 5.83334 15.1648 5.83334 15C5.83334 14.779 5.74555 14.567 5.58927 14.4107C5.43299 14.2545 5.22102 14.1667 5.00001 14.1667ZM8.33334 14.1667C8.16853 14.1667 8.00741 14.2155 7.87037 14.3071C7.73333 14.3987 7.62652 14.5288 7.56344 14.6811C7.50037 14.8334 7.48387 15.0009 7.51602 15.1626C7.54818 15.3242 7.62754 15.4727 7.74409 15.5893C7.86063 15.7058 8.00912 15.7852 8.17077 15.8173C8.33242 15.8495 8.49998 15.833 8.65225 15.7699C8.80452 15.7068 8.93467 15.6 9.02624 15.463C9.1178 15.3259 9.16668 15.1648 9.16668 15C9.16668 14.779 9.07888 14.567 8.9226 14.4107C8.76632 14.2545 8.55436 14.1667 8.33334 14.1667ZM15 10.8333C14.8352 10.8333 14.6741 10.8822 14.537 10.9738C14.4 11.0653 14.2932 11.1955 14.2301 11.3478C14.167 11.5 14.1505 11.6676 14.1827 11.8292C14.2148 11.9909 14.2942 12.1394 14.4108 12.2559C14.5273 12.3725 14.6758 12.4518 14.8374 12.484C14.9991 12.5161 15.1666 12.4996 15.3189 12.4366C15.4712 12.3735 15.6013 12.2667 15.6929 12.1296C15.7845 11.9926 15.8333 11.8315 15.8333 11.6667C15.8333 11.4457 15.7455 11.2337 15.5893 11.0774C15.433 10.9211 15.221 10.8333 15 10.8333ZM15.8333 15C15.8333 14.779 15.7455 14.567 15.5893 14.4107C15.433 14.2545 15.221 14.1667 15 14.1667H11.6667C11.4457 14.1667 11.2337 14.2545 11.0774 14.4107C10.9211 14.567 10.8333 14.779 10.8333 15C10.8333 15.221 10.9211 15.433 11.0774 15.5893C11.2337 15.7455 11.4457 15.8333 11.6667 15.8333H15C15.221 15.8333 15.433 15.7455 15.5893 15.5893C15.7455 15.433 15.8333 15.221 15.8333 15Z" fill="#525252"/>
</g>
<defs>
<clipPath id="clip0_22_8281">
<rect width="20" height="20" fill="white"/>
</clipPath>
</defs>
</svg>
