<svg width="20" height="20" viewBox="0 0 20 20" fill="none" xmlns="http://www.w3.org/2000/svg">
<g clip-path="url(#clip0_22_8277)">
<path d="M20 19.1665C20 19.3875 19.9122 19.5994 19.7559 19.7557C19.5996 19.912 19.3877 19.9998 19.1667 19.9998H0.833334C0.61232 19.9998 0.400358 19.912 0.244078 19.7557C0.0877976 19.5994 1.74856e-07 19.3875 1.74856e-07 19.1665C1.74856e-07 18.9455 0.0877976 18.7335 0.244078 18.5772C0.400358 18.4209 0.61232 18.3331 0.833334 18.3331H19.1667C19.3877 18.3331 19.5996 18.4209 19.7559 18.5772C19.9122 18.7335 20 18.9455 20 19.1665ZM0.2425 7.12647C0.0629354 6.79341 -0.0202543 6.41689 0.0022672 6.03918C0.0247887 5.66146 0.15213 5.2975 0.37 4.98814C0.726049 4.46573 1.20287 4.03694 1.76 3.73814L8.01083 0.484802C8.62522 0.165328 9.30752 -0.00146484 10 -0.00146484C10.6925 -0.00146484 11.3748 0.165328 11.9892 0.484802L18.2392 3.74064C18.7963 4.03944 19.2731 4.46823 19.6292 4.99064C19.847 5.3 19.9744 5.66396 19.9969 6.04168C20.0194 6.41939 19.9362 6.79591 19.7567 7.12897C19.5633 7.49466 19.2734 7.8003 18.9184 8.01263C18.5634 8.22495 18.157 8.33581 17.7433 8.33314H17.5V14.9998H18.3333C18.5543 14.9998 18.7663 15.0876 18.9226 15.2439C19.0789 15.4002 19.1667 15.6121 19.1667 15.8331C19.1667 16.0541 19.0789 16.2661 18.9226 16.4224C18.7663 16.5787 18.5543 16.6665 18.3333 16.6665H1.66667C1.44565 16.6665 1.23369 16.5787 1.07741 16.4224C0.921131 16.2661 0.833334 16.0541 0.833334 15.8331C0.833334 15.6121 0.921131 15.4002 1.07741 15.2439C1.23369 15.0876 1.44565 14.9998 1.66667 14.9998H2.5V8.33314H2.25667C1.84263 8.33572 1.43584 8.22456 1.08066 8.01177C0.725477 7.79899 0.435549 7.49275 0.2425 7.12647ZM4.16667 14.9998H6.66667V8.33314H4.16667V14.9998ZM8.33333 8.33314V14.9998H11.6667V8.33314H8.33333ZM15.8333 8.33314H13.3333V14.9998H15.8333V8.33314ZM1.71917 6.35397C1.77145 6.45037 1.84926 6.53052 1.94407 6.58564C2.03888 6.64076 2.14702 6.66872 2.25667 6.66647H17.7433C17.853 6.66872 17.9611 6.64076 18.0559 6.58564C18.1507 6.53052 18.2285 6.45037 18.2808 6.35397C18.3189 6.29027 18.3373 6.21674 18.3338 6.14261C18.3302 6.06848 18.3048 5.99706 18.2608 5.9373C18.0589 5.63723 17.7877 5.39025 17.47 5.2173L11.22 1.96147C10.8433 1.76599 10.4252 1.66395 10.0008 1.66395C9.57647 1.66395 9.15833 1.76599 8.78167 1.96147L2.53167 5.2173C2.21415 5.39081 1.94294 5.63802 1.74083 5.93814C1.69674 5.99764 1.67117 6.06883 1.66732 6.14279C1.66346 6.21675 1.6815 6.2902 1.71917 6.35397Z" fill="#525252"/>
</g>
<defs>
<clipPath id="clip0_22_8277">
<rect width="20" height="20" fill="white"/>
</clipPath>
</defs>
</svg>
